# Blender 4.2.0
# www.blender.org
mtllib artDesk.mtl
o Plane.001
v 1.806250 1.043101 -1.168750
v 1.725000 1.043101 -1.260000
v 1.725000 1.043101 -1.093750
v 1.643750 1.043101 -1.168750
v 1.725000 0.856250 -1.090000
v 1.803571 0.767857 -1.153572
v 1.722581 0.691935 -1.090000
v 1.647222 0.775000 -1.152778
v 1.725000 0.371674 -0.745244
v 1.806714 0.285086 -0.724910
v 1.808110 0.050307 -0.942782
v 1.725000 -0.006250 -0.855109
v 1.727583 0.207207 -0.680734
v 1.725000 0.181964 -1.068036
v 1.642780 0.046572 -0.951874
v 1.642143 0.200000 -1.175000
v 1.725000 -0.010000 -1.073839
v 1.808316 0.205843 -1.175000
v 1.725000 0.172411 -1.256250
v 1.725000 0.159999 -0.918208
v 1.643919 0.290356 -0.720976
v 0.384464 1.019660 -1.255263
v 0.455986 0.998204 -1.175000
v 1.525000 0.283750 -1.175000
v 1.607895 0.350202 -1.171053
v 1.529518 0.347729 -1.255422
v 0.155986 -0.001796 -1.175000
v 0.078162 0.021550 -1.258333
v 1.520006 0.866738 -1.175000
v 1.607895 0.799797 -1.178947
v 1.443750 0.615000 -1.175000
v 1.516067 0.760001 -1.258652
v 1.503472 0.461805 -1.253472
v 1.442045 0.531250 -1.178409
v 1.441461 0.778506 -1.175000
v 1.439596 0.354829 -1.186938
v 0.227441 0.445196 -1.253565
v 0.271019 0.368593 -1.175000
v 0.395939 0.784997 -1.175000
v 0.301522 0.692998 -1.254000
v 0.342150 0.618750 -1.175000
v 0.320942 0.535000 -1.175000
v 0.000340 0.044897 -1.175000
v 0.296748 1.045974 -1.175000
v 1.526878 0.801664 -1.093353
v 1.525000 0.346474 -1.095833
v 0.227441 0.445196 -1.096435
v 0.301522 0.692998 -1.096000
v 1.503472 0.461805 -1.096528
v 1.503571 0.707143 -1.096429
v 0.078162 0.021550 -1.091667
v 0.384464 1.019660 -1.094737
v 1.806250 1.043101 1.168750
v 1.725000 1.043101 1.260000
v 1.725000 1.043101 1.093750
v 1.643750 1.043101 1.168750
v 1.647222 0.775000 1.152778
v 1.725000 0.856250 1.090000
v 1.803571 0.767857 1.153572
v 1.722581 0.691936 1.090000
v 1.725000 0.371675 0.745244
v 1.806714 0.285086 0.724910
v 1.725000 -0.006250 0.855109
v 1.642780 0.046572 0.951874
v 1.727583 0.207207 0.680734
v 1.808316 0.205843 1.175000
v 1.725000 0.181964 1.068036
v 1.808110 0.050307 0.942782
v 1.725000 -0.010000 1.073839
v 1.725000 0.172411 1.256250
v 1.642143 0.200000 1.175000
v 1.725000 0.159999 0.918208
v 1.643919 0.290356 0.720976
v 0.384464 1.019660 1.255263
v 0.455986 0.998204 1.175000
v 1.525000 0.283750 1.175000
v 1.607895 0.350203 1.171053
v 1.529518 0.347729 1.255422
v 0.155986 -0.001796 1.175000
v 0.078162 0.021551 1.258333
v 1.520006 0.866739 1.175000
v 1.516067 0.760001 1.258652
v 1.607895 0.799798 1.178947
v 1.443750 0.615000 1.175000
v 1.503472 0.461806 1.253472
v 1.442045 0.531250 1.178409
v 1.441461 0.778507 1.175000
v 1.441435 0.343312 1.175000
v 0.227441 0.445196 1.253565
v 0.271019 0.368593 1.175000
v 0.395939 0.784997 1.175000
v 0.301522 0.692998 1.254000
v 0.342150 0.618750 1.175000
v 0.320942 0.535000 1.175000
v 0.000340 0.044897 1.175000
v 0.296748 1.045974 1.175000
v 1.526878 0.801664 1.093353
v 1.525000 0.346474 1.095833
v 0.227441 0.445196 1.096435
v 0.301522 0.692998 1.096000
v 1.503472 0.461806 1.096528
v 1.503571 0.707143 1.096429
v 0.078162 0.021551 1.091667
v 0.384464 1.019660 1.094737
vn -0.0000 1.0000 -0.0000
vn -0.6782 0.0147 0.7347
vn 0.6782 0.0147 0.7347
vn 0.4303 0.7498 0.5026
vn -0.4844 0.7202 0.4966
vn 0.6312 -0.0242 0.7752
vn -0.6550 -0.0234 0.7553
vn 0.6588 -0.6253 -0.4183
vn -0.8380 -0.3859 -0.3859
vn 0.5726 -0.8197 0.0141
vn 0.6988 -0.0031 -0.7153
vn -0.7007 -0.0031 -0.7135
vn -0.5523 -0.8335 0.0143
vn -0.5475 0.5768 -0.6063
vn 0.8033 0.5893 0.0864
vn 0.7328 -0.4605 0.5009
vn -0.7179 -0.4769 0.5071
vn -0.8184 0.5685 0.0833
vn 0.6534 0.4790 -0.5862
vn -0.0343 -0.0004 0.9994
vn -0.1263 -0.0119 -0.9919
vn 0.5568 -0.6650 -0.4978
vn 0.3924 0.5583 -0.7309
vn -0.4076 0.5736 -0.7105
vn -0.4093 0.5544 -0.7246
vn -0.4143 0.5312 -0.7391
vn -0.4812 -0.6726 -0.5621
vn 0.5400 0.6797 0.4963
vn -0.4790 0.6590 0.5800
vn -0.4804 0.6361 0.6039
vn -0.4789 0.6567 0.5826
vn -0.4249 -0.6981 0.5762
vn -0.4251 -0.6969 0.5776
vn -0.4322 -0.6669 0.6070
vn 0.5137 -0.6725 0.5328
vn 0.7832 -0.1983 -0.5892
vn 0.0134 -0.6189 -0.7853
vn 0.0118 -0.6209 -0.7838
vn 0.0173 -0.6232 -0.7819
vn 0.0061 0.9775 -0.2108
vn 0.6838 -0.2124 -0.6981
vn 0.0004 0.7342 -0.6789
vn 0.6516 0.0153 -0.7584
vn 0.7317 -0.1883 -0.6552
vn -0.6865 0.2033 -0.6981
vn 0.0248 -0.5088 -0.8605
vn -0.6074 -0.1253 -0.7845
vn -0.7899 0.0410 -0.6118
vn 0.7439 -0.2235 0.6298
vn -0.0013 -0.7164 0.6977
vn -0.0074 0.6558 0.7549
vn -0.0086 0.6635 0.7482
vn 0.7263 0.0121 0.6872
vn 0.7048 -0.1985 0.6811
vn -0.6295 0.1955 0.7520
vn -0.0025 -0.7293 0.6842
vn 0.6838 -0.2124 0.6981
vn -0.7041 0.1510 0.6938
vn -0.7292 -0.1321 0.6714
vn -0.7957 0.0001 0.6057
vn -0.7406 -0.6719 -0.0000
vn -0.7046 -0.7096 -0.0000
vn -0.7224 0.6915 -0.0000
vn -0.7078 0.7064 -0.0000
vn 0.7011 -0.7131 -0.0000
vn 0.7011 -0.7131 0.0001
vn -0.6506 0.0368 -0.7585
vn 0.6782 0.0147 -0.7347
vn 0.4303 0.7498 -0.5026
vn -0.4844 0.7202 -0.4966
vn 0.7853 0.0304 -0.6184
vn -0.6550 -0.0234 -0.7553
vn 0.8285 -0.4656 0.3111
vn -0.8147 -0.4790 0.3270
vn 0.5726 -0.8197 -0.0141
vn 0.6988 -0.0031 0.7153
vn -0.7468 0.0064 0.6650
vn -0.5475 0.5768 0.6063
vn 0.8033 0.5893 -0.0864
vn 0.7798 -0.4017 -0.4801
vn -0.7179 -0.4769 -0.5071
vn 0.5649 0.5631 0.6032
vn 0.6839 -0.7296 -0.0000
vn -0.0343 -0.0004 -0.9994
vn -0.1263 -0.0119 0.9919
vn 0.5568 -0.6650 0.4978
vn 0.3924 0.5583 0.7309
vn -0.4076 0.5736 0.7105
vn -0.4143 0.5310 0.7392
vn -0.4093 0.5544 0.7246
vn -0.4799 -0.6732 0.5626
vn 0.5400 0.6797 -0.4963
vn -0.4790 0.6590 -0.5800
vn -0.4789 0.6567 -0.5826
vn -0.4804 0.6362 -0.6038
vn -0.4877 -0.6843 -0.5421
vn 0.5137 -0.6725 -0.5328
vn 0.0110 -0.6428 0.7660
vn 0.0153 -0.6407 0.7676
vn 0.0234 -0.6443 0.7644
vn 0.0061 0.9775 0.2108
vn 0.0004 0.7342 0.6789
vn 0.6516 0.0153 0.7584
vn 0.0248 -0.5088 0.8605
vn -0.6639 -0.1390 0.7348
vn -0.7899 0.0410 0.6118
vn 0.7439 -0.2235 -0.6298
vn 0.0153 -0.6407 -0.7676
vn 0.0110 -0.6428 -0.7660
vn 0.0234 -0.6443 -0.7644
vn 0.0046 0.7420 -0.6703
vn 0.0045 0.7643 -0.6448
vn 0.7263 0.0121 -0.6872
vn 0.7048 -0.1985 -0.6811
vn -0.6295 0.1955 -0.7520
vn 0.0079 -0.6518 -0.7583
vn 0.7242 -0.2479 -0.6435
vn -0.7041 0.1510 -0.6938
vn -0.6801 -0.1226 -0.7228
vn -0.7906 -0.0088 -0.6123
vn 0.7474 0.6644 -0.0000
vn 0.7270 0.6867 -0.0000
vn -0.6506 0.0368 0.7585
vn 0.6524 0.0354 0.7571
vn 0.7853 0.0304 0.6184
vn -0.7885 0.0227 0.6146
vn 0.8521 -0.3701 -0.3701
vn -0.6381 -0.6353 -0.4350
vn 0.7468 0.0068 -0.6650
vn -0.7468 0.0064 -0.6650
vn -0.6548 0.4782 -0.5853
vn 0.7798 -0.4017 0.4801
vn -0.7973 -0.3761 0.4722
vn 0.5649 0.5631 -0.6032
vn -0.2873 -0.9578 -0.0000
vn 0.0469 -0.0158 0.9988
vn 0.1767 -0.0512 0.9829
vn 0.2873 0.9578 -0.0000
vn -0.1111 -0.0050 0.9938
vn -0.0085 -0.7920 -0.6105
vn -0.0122 -0.7946 -0.6069
vn -0.0202 -0.7900 -0.6128
vn -0.0400 0.6743 -0.7374
vn -0.0086 0.6635 -0.7482
vn 0.7328 -0.0119 -0.6804
vn -0.0025 -0.7293 -0.6842
vn -0.7641 0.0211 -0.6448
vn 0.7832 -0.1983 0.5892
vn 0.0085 -0.6484 0.7612
vn 0.0046 0.7420 0.6703
vn 0.0045 0.7643 0.6448
vn 0.6721 -0.0068 0.7404
vn 0.7317 -0.1883 0.6552
vn -0.6865 0.2033 0.6981
vn 0.0079 -0.6518 0.7583
vn 0.7242 -0.2479 0.6435
vn -0.8031 -0.0079 0.5958
vn 0.0470 -0.0158 -0.9988
vn 0.1767 -0.0512 -0.9829
vn 0.7011 -0.7131 -0.0001
vn -0.6782 0.0147 -0.7347
vn 0.6524 0.0354 -0.7571
vn -0.9763 0.0003 -0.2165
vn -0.9763 0.0003 0.2165
vn 0.9815 0.0010 0.1912
vn 0.9815 0.0010 -0.1912
vn 0.6312 -0.0242 -0.7752
vn -0.7885 0.0227 -0.6146
vn 0.6975 -0.5067 0.5067
vn -0.6806 -0.5181 0.5181
vn 0.7468 0.0068 0.6650
vn -0.7007 -0.0031 0.7135
vn -0.5523 -0.8335 -0.0143
vn -0.6548 0.4782 0.5853
vn 0.7328 -0.4605 -0.5009
vn -0.7973 -0.3761 -0.4722
vn -0.8184 0.5685 -0.0833
vn 0.6534 0.4790 0.5862
vn 0.0469 -0.0158 -0.9988
vn -0.1111 -0.0050 -0.9938
vn -0.0203 -0.7900 0.6128
vn -0.0133 -0.7947 0.6069
vn -0.0100 -0.7920 0.6104
vn -0.0400 0.6743 0.7374
vn 0.7328 -0.0119 0.6804
vn -0.7641 0.0211 0.6448
vn -0.0100 -0.7920 -0.6104
vn -0.0133 -0.7947 -0.6069
vn -0.0203 -0.7900 -0.6128
vn -0.0074 0.6558 -0.7549
vn 0.6721 -0.0068 -0.7404
vn -0.7999 0.0001 -0.6001
vt 0.750000 0.500000
vt 0.875000 0.614583
vt 0.750000 0.750000
vt 0.625000 0.614583
vt 0.500000 0.375000
vt 0.625000 0.375000
vt 0.625000 0.135417
vt 0.416757 0.087003
vt 0.408565 0.375000
vt 0.388261 0.194411
vt 0.388767 0.560765
vt 0.416807 0.664347
vt 0.437500 0.379032
vt 0.518059 0.122086
vt 0.520329 0.627810
vt 0.125000 0.673640
vt 0.250000 0.750000
vt 0.125000 0.743026
vt 0.375000 0.673640
vt 0.250000 0.666667
vt 0.125000 0.560608
vt 0.250000 0.500000
vt 0.625000 0.000000
vt 0.416942 0.000000
vt 0.625000 0.875000
vt 0.416942 0.875000
vt 0.391160 0.500000
vt 0.406448 0.375000
vt 0.375000 0.370695
vt 0.390458 0.250000
vt 0.406448 0.375000
vt 0.000000 0.000000
vt 0.416757 0.087003
vt 0.388261 0.194411
vt 0.388767 0.560765
vt 0.375000 0.743026
vt 0.375000 0.375000
vt 0.518059 0.122086
s 0
f 3/1/1 1/2/1 2/3/1
f 4/4/2 5/5/2 3/6/2
f 5/5/3 1/7/3 3/6/3
f 18/8/4 14/9/4 11/10/4
f 15/11/5 14/9/5 16/12/5
f 7/13/6 18/8/6 6/14/6
f 16/12/7 7/13/7 8/15/7
f 11/16/8 19/17/8 18/18/8
f 15/19/9 19/17/9 17/20/9
f 17/20/10 11/21/10 12/22/10
f 2/23/11 18/8/11 19/24/11
f 16/12/12 2/25/12 19/26/12
f 15/11/13 17/20/13 12/22/13
f 21/27/14 20/28/14 15/11/14
f 20/28/15 11/10/15 14/9/15
f 13/29/16 11/10/16 10/30/16
f 15/11/17 13/29/17 21/27/17
f 15/11/18 20/28/18 14/9/18
f 10/30/19 20/28/19 9/31/19
f 50/32/20 49/32/20 46/32/20
f 26/32/21 33/32/21 32/32/21
f 24/32/22 26/32/22 25/32/22
f 29/32/23 30/32/23 32/32/23
f 29/32/24 32/32/25 35/32/26
f 24/32/27 36/32/27 26/32/27
f 29/32/28 45/32/28 30/32/28
f 29/32/29 35/32/30 45/32/31
f 24/32/32 46/32/33 36/32/34
f 24/32/35 25/32/35 46/32/35
f 42/32/36 40/32/36 41/32/36
f 36/32/37 37/32/38 33/32/39
f 32/32/40 39/32/40 35/32/40
f 28/32/41 38/32/41 27/32/41
f 33/32/42 42/32/42 34/32/42
f 30/32/43 26/32/43 32/32/43
f 22/32/44 39/32/44 40/32/44
f 44/32/45 28/32/45 43/32/45
f 31/32/46 40/32/46 32/32/46
f 36/32/47 33/32/47 26/32/47
f 32/32/48 34/32/48 31/32/48
f 42/32/49 48/32/49 47/32/49
f 36/32/50 47/32/50 38/32/50
f 50/32/51 39/32/51 48/32/51
f 49/32/52 42/32/52 47/32/52
f 45/32/53 25/32/53 30/32/53
f 52/32/54 39/32/54 23/32/54
f 44/32/55 51/32/55 52/32/55
f 31/32/56 48/32/56 41/32/56
f 38/32/57 51/32/57 27/32/57
f 35/32/58 50/32/58 45/32/58
f 49/32/59 36/32/59 46/32/59
f 31/32/60 49/32/60 50/32/60
f 60/13/61 8/15/61 7/13/61
f 65/29/62 21/27/62 13/29/62
f 8/15/63 58/5/63 5/5/63
f 21/27/64 61/31/64 9/31/64
f 62/30/65 13/29/65 10/30/66
f 56/4/67 58/5/67 57/15/67
f 53/7/68 58/5/68 55/6/68
f 67/9/69 66/33/69 68/34/69
f 67/9/70 64/35/70 71/12/70
f 60/13/71 66/33/71 67/9/71
f 60/13/72 71/12/72 57/15/72
f 66/18/73 69/20/73 68/16/73
f 69/20/74 71/36/74 64/19/74
f 68/21/75 69/20/75 63/22/75
f 66/33/76 54/23/76 70/24/76
f 71/12/77 54/25/77 56/4/77
f 72/28/78 73/27/78 64/35/78
f 68/34/79 72/28/79 67/9/79
f 65/29/80 68/34/80 63/37/80
f 65/29/81 64/35/81 73/27/81
f 62/30/82 72/28/82 68/34/82
f 59/38/83 7/13/83 6/14/83
f 98/32/84 101/32/84 102/32/84
f 82/32/85 85/32/85 78/32/85
f 76/32/86 77/32/86 78/32/86
f 81/32/87 82/32/87 83/32/87
f 81/32/88 87/32/89 82/32/90
f 76/32/91 78/32/91 88/32/91
f 81/32/92 83/32/92 97/32/92
f 81/32/93 97/32/94 87/32/95
f 76/32/96 88/32/96 98/32/96
f 76/32/97 98/32/97 77/32/97
f 94/32/49 92/32/49 89/32/49
f 89/32/98 88/32/99 85/32/100
f 91/32/101 82/32/101 87/32/101
f 90/32/57 80/32/57 79/32/57
f 94/32/102 85/32/102 86/32/102
f 78/32/103 83/32/103 82/32/103
f 74/32/54 91/32/54 75/32/54
f 96/32/55 80/32/55 74/32/55
f 92/32/104 84/32/104 82/32/104
f 88/32/105 78/32/105 85/32/105
f 86/32/106 82/32/106 84/32/106
f 100/32/107 94/32/107 99/32/107
f 88/32/108 99/32/109 101/32/110
f 102/32/111 91/32/111 87/32/111
f 101/32/112 94/32/112 86/32/112
f 77/32/113 97/32/113 83/32/113
f 91/32/114 104/32/114 75/32/114
f 103/32/115 96/32/115 104/32/115
f 84/32/116 100/32/116 102/32/116
f 90/32/117 103/32/117 99/32/117
f 87/32/118 97/32/118 102/32/118
f 101/32/119 98/32/119 88/32/119
f 102/32/120 86/32/120 84/32/120
f 58/5/121 6/14/121 5/5/121
f 10/30/122 61/31/122 62/30/122
f 4/4/1 3/1/1 2/3/1
f 4/4/123 8/15/123 5/5/123
f 5/5/124 6/14/124 1/7/124
f 7/13/125 14/9/125 18/8/125
f 16/12/126 14/9/126 7/13/126
f 11/16/127 17/20/127 19/17/127
f 15/19/128 16/36/128 19/17/128
f 2/23/129 1/7/129 18/8/129
f 16/12/130 4/4/130 2/25/130
f 21/27/131 9/31/131 20/28/131
f 13/29/132 12/37/132 11/10/132
f 15/11/133 12/37/133 13/29/133
f 10/30/134 11/10/134 20/28/134
f 27/32/135 51/32/135 28/32/135
f 51/32/135 43/32/135 28/32/135
f 47/32/136 48/32/136 52/32/136
f 52/32/137 51/32/137 47/32/137
f 22/32/138 44/32/138 52/32/138
f 23/32/138 22/32/138 52/32/138
f 46/32/139 45/32/139 50/32/139
f 42/32/107 37/32/107 40/32/107
f 36/32/140 38/32/141 37/32/142
f 32/32/143 40/32/143 39/32/143
f 28/32/117 37/32/117 38/32/117
f 33/32/144 37/32/144 42/32/144
f 30/32/145 25/32/145 26/32/145
f 22/32/114 23/32/114 39/32/114
f 44/32/115 22/32/115 28/32/115
f 31/32/146 41/32/146 40/32/146
f 32/32/147 33/32/147 34/32/147
f 42/32/148 41/32/148 48/32/148
f 36/32/149 49/32/149 47/32/149
f 50/32/150 35/32/150 39/32/150
f 49/32/151 34/32/151 42/32/151
f 45/32/152 46/32/152 25/32/152
f 52/32/153 48/32/153 39/32/153
f 44/32/154 43/32/154 51/32/154
f 31/32/155 50/32/155 48/32/155
f 38/32/156 47/32/156 51/32/156
f 31/32/157 34/32/157 49/32/157
f 40/32/158 37/32/158 22/32/158
f 22/32/159 37/32/159 28/32/159
f 60/13/61 57/15/61 8/15/61
f 65/29/62 73/27/62 21/27/62
f 8/15/63 57/15/63 58/5/63
f 21/27/64 73/27/64 61/31/64
f 62/30/160 65/29/65 13/29/65
f 56/4/1 54/3/1 55/1/1
f 53/2/1 55/1/1 54/3/1
f 56/4/161 55/6/161 58/5/161
f 53/7/162 59/38/162 58/5/162
f 71/12/163 56/4/163 57/15/163
f 4/4/164 16/12/164 8/15/164
f 18/8/165 1/7/165 6/14/165
f 53/7/166 66/33/166 59/38/166
f 60/13/167 59/38/167 66/33/167
f 60/13/168 67/9/168 71/12/168
f 66/18/169 70/17/169 69/20/169
f 69/20/170 70/17/170 71/36/170
f 66/33/171 53/7/171 54/23/171
f 71/12/172 70/26/172 54/25/172
f 64/35/173 63/22/173 69/20/173
f 72/28/174 61/31/174 73/27/174
f 65/29/175 62/30/175 68/34/175
f 65/29/176 63/37/176 64/35/176
f 64/35/177 67/9/177 72/28/177
f 62/30/178 61/31/178 72/28/178
f 59/38/83 60/13/83 7/13/83
f 79/32/135 80/32/135 95/32/135
f 95/32/135 103/32/135 79/32/135
f 100/32/179 99/32/179 104/32/179
f 104/32/159 99/32/159 103/32/159
f 96/32/138 74/32/138 75/32/138
f 75/32/138 104/32/138 96/32/138
f 97/32/180 98/32/180 102/32/180
f 94/32/148 93/32/148 92/32/148
f 89/32/181 90/32/182 88/32/183
f 91/32/184 92/32/184 82/32/184
f 90/32/156 89/32/156 80/32/156
f 94/32/52 89/32/52 85/32/52
f 78/32/185 77/32/185 83/32/185
f 74/32/153 92/32/153 91/32/153
f 96/32/154 95/32/154 80/32/154
f 92/32/56 93/32/56 84/32/56
f 86/32/186 85/32/186 82/32/186
f 100/32/36 93/32/36 94/32/36
f 88/32/187 90/32/188 99/32/189
f 102/32/190 100/32/190 91/32/190
f 101/32/144 99/32/144 94/32/144
f 77/32/191 98/32/191 97/32/191
f 91/32/44 100/32/44 104/32/44
f 103/32/45 95/32/45 96/32/45
f 84/32/146 93/32/146 100/32/146
f 90/32/41 79/32/41 103/32/41
f 102/32/192 101/32/192 86/32/192
f 89/32/136 92/32/136 74/32/136
f 74/32/137 80/32/137 89/32/137
f 58/5/121 59/38/121 6/14/121
f 10/30/122 9/31/122 61/31/122
